<svg xmlns="http://www.w3.org/2000/svg" version="1.1" xmlns:xlink="http://www.w3.org/1999/xlink" xmlns:svgjs="http://svgjs.com/svgjs" width="2480" height="2480" preserveAspectRatio="none" viewBox="0 0 2480 2480"><g mask="url(&quot;#SvgjsMask1014&quot;)" fill="none"><g transform="translate(0, 0)" stroke-linecap="round"><path d="M440 829.43 L440 1650.57" stroke-width="15" stroke="rgba(0, 0, 0, 1)"></path><path d="M460 844.05 L460 1635.95" stroke-width="15" stroke="rgba(0, 0, 0, 1)"></path><path d="M480 980.86 L480 1499.14" stroke-width="15" stroke="rgba(0, 0, 0, 1)"></path><path d="M500 625.49 L500 1854.51" stroke-width="15" stroke="rgba(0, 0, 0, 1)"></path><path d="M520 541.25 L520 1938.74" stroke-width="15" stroke="rgba(0, 0, 0, 1)"></path><path d="M540 958.18 L540 1521.82" stroke-width="15" stroke="rgba(0, 0, 0, 1)"></path><path d="M560 1047.18 L560 1432.82" stroke-width="15" stroke="rgba(0, 0, 0, 1)"></path><path d="M580 600.75 L580 1879.25" stroke-width="15" stroke="rgba(0, 0, 0, 1)"></path><path d="M600 1059.37 L600 1420.63" stroke-width="15" stroke="rgba(0, 0, 0, 1)"></path><path d="M620 821.07 L620 1658.93" stroke-width="15" stroke="rgba(0, 0, 0, 1)"></path><path d="M640 882.33 L640 1597.67" stroke-width="15" stroke="rgba(0, 0, 0, 1)"></path><path d="M660 1026.31 L660 1453.69" stroke-width="15" stroke="rgba(0, 0, 0, 1)"></path><path d="M680 690.49 L680 1789.51" stroke-width="15" stroke="rgba(0, 0, 0, 1)"></path><path d="M700 796.36 L700 1683.64" stroke-width="15" stroke="rgba(0, 0, 0, 1)"></path><path d="M720 1077.14 L720 1402.86" stroke-width="15" stroke="rgba(0, 0, 0, 1)"></path><path d="M740 870.57 L740 1609.43" stroke-width="15" stroke="rgba(0, 0, 0, 1)"></path><path d="M760 684.77 L760 1795.22" stroke-width="15" stroke="rgba(0, 0, 0, 1)"></path><path d="M780 552.23 L780 1927.77" stroke-width="15" stroke="rgba(0, 0, 0, 1)"></path><path d="M800 828.49 L800 1651.51" stroke-width="15" stroke="rgba(0, 0, 0, 1)"></path><path d="M820 761.06 L820 1718.94" stroke-width="15" stroke="rgba(0, 0, 0, 1)"></path><path d="M840 862.85 L840 1617.15" stroke-width="15" stroke="rgba(0, 0, 0, 1)"></path><path d="M860 765.94 L860 1714.06" stroke-width="15" stroke="rgba(0, 0, 0, 1)"></path><path d="M880 1073.51 L880 1406.49" stroke-width="15" stroke="rgba(0, 0, 0, 1)"></path><path d="M900 1017.5 L900 1462.51" stroke-width="15" stroke="rgba(0, 0, 0, 1)"></path><path d="M920 548.23 L920 1931.78" stroke-width="15" stroke="rgba(0, 0, 0, 1)"></path><path d="M940 460.72 L940 2019.28" stroke-width="15" stroke="rgba(0, 0, 0, 1)"></path><path d="M960 598.38 L960 1881.62" stroke-width="15" stroke="rgba(0, 0, 0, 1)"></path><path d="M980 533.52 L980 1946.47" stroke-width="15" stroke="rgba(0, 0, 0, 1)"></path><path d="M1000 862.37 L1000 1617.63" stroke-width="15" stroke="rgba(0, 0, 0, 1)"></path><path d="M1020 1007.19 L1020 1472.81" stroke-width="15" stroke="rgba(0, 0, 0, 1)"></path><path d="M1040 770.95 L1040 1709.05" stroke-width="15" stroke="rgba(0, 0, 0, 1)"></path><path d="M1060 466.25 L1060 2013.75" stroke-width="15" stroke="rgba(0, 0, 0, 1)"></path><path d="M1080 1097.47 L1080 1382.53" stroke-width="15" stroke="rgba(0, 0, 0, 1)"></path><path d="M1100 997.41 L1100 1482.59" stroke-width="15" stroke="rgba(0, 0, 0, 1)"></path><path d="M1120 654.8 L1120 1825.2" stroke-width="15" stroke="rgba(0, 0, 0, 1)"></path><path d="M1140 1040.47 L1140 1439.53" stroke-width="15" stroke="rgba(0, 0, 0, 1)"></path><path d="M1160 491.27 L1160 1988.73" stroke-width="15" stroke="rgba(0, 0, 0, 1)"></path><path d="M1180 1083.29 L1180 1396.71" stroke-width="15" stroke="rgba(0, 0, 0, 1)"></path><path d="M1200 502.23 L1200 1977.78" stroke-width="15" stroke="rgba(0, 0, 0, 1)"></path><path d="M1220 998.21 L1220 1481.8" stroke-width="15" stroke="rgba(0, 0, 0, 1)"></path><path d="M1240 1046.05 L1240 1433.95" stroke-width="15" stroke="rgba(0, 0, 0, 1)"></path><path d="M1260 906.17 L1260 1573.83" stroke-width="15" stroke="rgba(0, 0, 0, 1)"></path><path d="M1280 960.68 L1280 1519.32" stroke-width="15" stroke="rgba(0, 0, 0, 1)"></path><path d="M1300 752.86 L1300 1727.14" stroke-width="15" stroke="rgba(0, 0, 0, 1)"></path><path d="M1320 941.59 L1320 1538.41" stroke-width="15" stroke="rgba(0, 0, 0, 1)"></path><path d="M1340 978.02 L1340 1501.98" stroke-width="15" stroke="rgba(0, 0, 0, 1)"></path><path d="M1360 533.46 L1360 1946.54" stroke-width="15" stroke="rgba(0, 0, 0, 1)"></path><path d="M1380 466.39 L1380 2013.61" stroke-width="15" stroke="rgba(0, 0, 0, 1)"></path><path d="M1400 1043.08 L1400 1436.92" stroke-width="15" stroke="rgba(0, 0, 0, 1)"></path><path d="M1420 909 L1420 1571" stroke-width="15" stroke="rgba(0, 0, 0, 1)"></path><path d="M1440 1149.05 L1440 1330.95" stroke-width="15" stroke="rgba(0, 0, 0, 1)"></path><path d="M1460 960.07 L1460 1519.93" stroke-width="15" stroke="rgba(0, 0, 0, 1)"></path><path d="M1480 579.95 L1480 1900.05" stroke-width="15" stroke="rgba(0, 0, 0, 1)"></path><path d="M1500 835.89 L1500 1644.11" stroke-width="15" stroke="rgba(0, 0, 0, 1)"></path><path d="M1520 1078.97 L1520 1401.03" stroke-width="15" stroke="rgba(0, 0, 0, 1)"></path><path d="M1540 982.77 L1540 1497.22" stroke-width="15" stroke="rgba(0, 0, 0, 1)"></path><path d="M1560 723.76 L1560 1756.24" stroke-width="15" stroke="rgba(0, 0, 0, 1)"></path><path d="M1580 1155.63 L1580 1324.38" stroke-width="15" stroke="rgba(0, 0, 0, 1)"></path><path d="M1600 713.75 L1600 1766.26" stroke-width="15" stroke="rgba(0, 0, 0, 1)"></path><path d="M1620 764.54 L1620 1715.46" stroke-width="15" stroke="rgba(0, 0, 0, 1)"></path><path d="M1640 990.73 L1640 1489.28" stroke-width="15" stroke="rgba(0, 0, 0, 1)"></path><path d="M1660 1006.33 L1660 1473.67" stroke-width="15" stroke="rgba(0, 0, 0, 1)"></path><path d="M1680 875.23 L1680 1604.77" stroke-width="15" stroke="rgba(0, 0, 0, 1)"></path><path d="M1700 627.78 L1700 1852.22" stroke-width="15" stroke="rgba(0, 0, 0, 1)"></path><path d="M1720 968.04 L1720 1511.96" stroke-width="15" stroke="rgba(0, 0, 0, 1)"></path><path d="M1740 744.32 L1740 1735.68" stroke-width="15" stroke="rgba(0, 0, 0, 1)"></path><path d="M1760 460.94 L1760 2019.06" stroke-width="15" stroke="rgba(0, 0, 0, 1)"></path><path d="M1780 952.22 L1780 1527.78" stroke-width="15" stroke="rgba(0, 0, 0, 1)"></path><path d="M1800 649.78 L1800 1830.22" stroke-width="15" stroke="rgba(0, 0, 0, 1)"></path><path d="M1820 958.89 L1820 1521.11" stroke-width="15" stroke="rgba(0, 0, 0, 1)"></path><path d="M1840 959.06 L1840 1520.94" stroke-width="15" stroke="rgba(0, 0, 0, 1)"></path><path d="M1860 432.79 L1860 2047.2" stroke-width="15" stroke="rgba(0, 0, 0, 1)"></path><path d="M1880 1052.21 L1880 1427.79" stroke-width="15" stroke="rgba(0, 0, 0, 1)"></path><path d="M1900 551.39 L1900 1928.61" stroke-width="15" stroke="rgba(0, 0, 0, 1)"></path><path d="M1920 1126.42 L1920 1353.58" stroke-width="15" stroke="rgba(0, 0, 0, 1)"></path><path d="M1940 844.05 L1940 1635.95" stroke-width="15" stroke="rgba(0, 0, 0, 1)"></path><path d="M1960 785.86 L1960 1694.14" stroke-width="15" stroke="rgba(0, 0, 0, 1)"></path><path d="M1980 1065.46 L1980 1414.54" stroke-width="15" stroke="rgba(0, 0, 0, 1)"></path><path d="M2000 636.73 L2000 1843.28" stroke-width="15" stroke="rgba(0, 0, 0, 1)"></path><path d="M2020 914.6 L2020 1565.4" stroke-width="15" stroke="rgba(0, 0, 0, 1)"></path><path d="M2040 660.72 L2040 1819.28" stroke-width="15" stroke="rgba(0, 0, 0, 1)"></path></g></g><defs><mask id="SvgjsMask1014"><rect width="2480" height="2480" fill="#ffffff"></rect></mask></defs></svg>