<svg xmlns="http://www.w3.org/2000/svg" version="1.1" xmlns:xlink="http://www.w3.org/1999/xlink" xmlns:svgjs="http://svgjs.com/svgjs" width="2048" height="2048" preserveAspectRatio="none" viewBox="0 0 2048 2048"><g clip-path="url(&quot;#SvgjsClipPath1031&quot;)" fill="none"><circle r="341.335" cx="-61.83" cy="188.43" stroke="#fffdfd" stroke-opacity="0.84" stroke-width="2"></circle><circle r="284.26" cx="194.59" cy="1025.14" stroke="#fffdfd" stroke-opacity="0.84" stroke-width="2"></circle><circle r="597.195" cx="989.92" cy="496.63" stroke="#fffdfd" stroke-opacity="0.84" stroke-width="2"></circle><circle r="470.465" cx="412.05" cy="648.08" stroke="#fffdfd" stroke-opacity="0.84" stroke-width="2"></circle><circle r="562.65" cx="76.63" cy="678.05" stroke="#fffdfd" stroke-opacity="0.84" stroke-width="2"></circle><circle r="629.93" cx="240.82" cy="1800.71" stroke="#fffdfd" stroke-opacity="0.84" stroke-width="2"></circle><circle r="440.89" cx="379.71" cy="317.98" stroke="#fffdfd" stroke-opacity="0.84" stroke-width="2"></circle><circle r="378.645" cx="1151.8" cy="1942.32" stroke="#fffdfd" stroke-opacity="0.84" stroke-width="2"></circle><circle r="406.125" cx="693.21" cy="2017.17" stroke="#fffdfd" stroke-opacity="0.84" stroke-width="2"></circle><circle r="461.865" cx="1771.25" cy="1672.53" stroke="#fffdfd" stroke-opacity="0.84" stroke-width="2"></circle><circle r="570.42" cx="983.75" cy="646.8" stroke="#fffdfd" stroke-opacity="0.84" stroke-width="2"></circle><circle r="610.15" cx="1247.69" cy="1402.66" stroke="#fffdfd" stroke-opacity="0.84" stroke-width="2"></circle><circle r="414.23" cx="1828.65" cy="1566.47" stroke="#fffdfd" stroke-opacity="0.84" stroke-width="2"></circle><circle r="345.34" cx="414.52" cy="87.41" stroke="#fffdfd" stroke-opacity="0.84" stroke-width="2"></circle><circle r="524.265" cx="321.28" cy="1119.35" stroke="#fffdfd" stroke-opacity="0.84" stroke-width="2"></circle><circle r="469.375" cx="1646.03" cy="357.32" stroke="#fffdfd" stroke-opacity="0.84" stroke-width="2"></circle><circle r="378.42" cx="1433.24" cy="1118.67" stroke="#fffdfd" stroke-opacity="0.84" stroke-width="2"></circle><circle r="523.315" cx="152.37" cy="493.89" stroke="#fffdfd" stroke-opacity="0.84" stroke-width="2"></circle><circle r="454.735" cx="890.32" cy="556.44" stroke="#fffdfd" stroke-opacity="0.84" stroke-width="2"></circle><circle r="276.135" cx="256.77" cy="768.37" stroke="#fffdfd" stroke-opacity="0.84" stroke-width="2"></circle><circle r="529.195" cx="1835.64" cy="1372.64" stroke="#fffdfd" stroke-opacity="0.84" stroke-width="2"></circle><circle r="603.99" cx="1136.95" cy="1754.27" stroke="#fffdfd" stroke-opacity="0.84" stroke-width="2"></circle><circle r="537.165" cx="1275.82" cy="1429.1" stroke="#fffdfd" stroke-opacity="0.84" stroke-width="2"></circle><circle r="601.535" cx="1541.96" cy="1181.12" stroke="#fffdfd" stroke-opacity="0.84" stroke-width="2"></circle><circle r="272.78" cx="1156.96" cy="236.1" stroke="#fffdfd" stroke-opacity="0.84" stroke-width="2"></circle><circle r="566.945" cx="1656.9" cy="1274.97" stroke="#fffdfd" stroke-opacity="0.84" stroke-width="2"></circle><circle r="311.48" cx="898.75" cy="659.4" stroke="#fffdfd" stroke-opacity="0.84" stroke-width="2"></circle><circle r="462.58" cx="565.37" cy="985.29" stroke="#fffdfd" stroke-opacity="0.84" stroke-width="2"></circle><circle r="501.89" cx="1276.93" cy="1897.16" stroke="#fffdfd" stroke-opacity="0.84" stroke-width="2"></circle><circle r="484.865" cx="2039.16" cy="1762.83" stroke="#fffdfd" stroke-opacity="0.84" stroke-width="2"></circle><circle r="559.65" cx="1970.15" cy="1115.14" stroke="#fffdfd" stroke-opacity="0.84" stroke-width="2"></circle><circle r="484.005" cx="570.41" cy="833.03" stroke="#fffdfd" stroke-opacity="0.84" stroke-width="2"></circle><circle r="344.415" cx="287.78" cy="27.3" stroke="#fffdfd" stroke-opacity="0.84" stroke-width="2"></circle><circle r="412.225" cx="1769.54" cy="1222.95" stroke="#fffdfd" stroke-opacity="0.84" stroke-width="2"></circle><circle r="405.715" cx="1326.46" cy="1653.59" stroke="#fffdfd" stroke-opacity="0.84" stroke-width="2"></circle><circle r="454.31" cx="93.06" cy="400.79" stroke="#fffdfd" stroke-opacity="0.84" stroke-width="2"></circle><circle r="381.625" cx="950.04" cy="1664.64" stroke="#fffdfd" stroke-opacity="0.84" stroke-width="2"></circle><circle r="541.345" cx="1360.98" cy="1630.71" stroke="#fffdfd" stroke-opacity="0.84" stroke-width="2"></circle><circle r="194.11" cx="1287.38" cy="2008.96" stroke="#fffdfd" stroke-opacity="0.84" stroke-width="2"></circle><circle r="280.755" cx="56.58" cy="1556.7" stroke="#fffdfd" stroke-opacity="0.84" stroke-width="2"></circle></g><defs><clipPath id="SvgjsClipPath1031"><rect width="2048" height="2048" x="0" y="0"></rect></clipPath></defs></svg>