<svg xmlns="http://www.w3.org/2000/svg" version="1.1" xmlns:xlink="http://www.w3.org/1999/xlink" xmlns:svgjs="http://svgjs.com/svgjs" width="1284" height="2732" preserveAspectRatio="none" viewBox="0 0 1284 2732"><g mask="url(&quot;#SvgjsMask1302&quot;)" fill="none"><path d="M1284 0L1002.7 0L1284 847.09z" fill="rgba(255, 255, 255, .1)"></path><path d="M1002.7 0L1284 847.09L1284 947.51L970.6 0z" fill="rgba(255, 255, 255, .075)"></path><path d="M970.5999999999999 0L1284 947.51L1284 1585.74L644.7099999999999 0z" fill="rgba(255, 255, 255, .05)"></path><path d="M644.71 0L1284 1585.74L1284 1665.6L554.77 0z" fill="rgba(255, 255, 255, .025)"></path><path d="M0 2732L310.96 2732L0 2628.38z" fill="rgba(0, 0, 0, .1)"></path><path d="M0 2628.38L310.96 2732L316.26 2732L0 2549.8900000000003z" fill="rgba(0, 0, 0, .075)"></path><path d="M0 2549.89L316.26 2732L709.7 2732L0 1394.4399999999998z" fill="rgba(0, 0, 0, .05)"></path><path d="M0 1394.44L709.7 2732L746.3900000000001 2732L0 695.98z" fill="rgba(0, 0, 0, .025)"></path></g><defs><mask id="SvgjsMask1302"><rect width="1284" height="2732" fill="#ffffff"></rect></mask></defs></svg>